<svg id="Icons" enable-background="new 0 0 512 512" height="512" viewBox="0 0 512 512" width="512" xmlns="http://www.w3.org/2000/svg"><g><g><ellipse cx="256" cy="255.995" fill="#3085ce" rx="256" ry="255.995"/><path d="m498.72 337.593c-32.48 96.528-121.19 168.287-229.08 174.037-117.48 6.27-220.67-67.689-256.36-174.036h485.44z" fill="#326dcd"/></g><g><g><g><path d="m37.446 290.921v6.748c0 3.156 2.555 5.711 5.711 5.711h247.518c3.156 0 5.711-2.555 5.711-5.711v-1.593c0-.616-.105-1.202-.316-1.743-.706-1.984-2.6-3.412-4.824-3.412z" fill="#c2aacf"/><path d="m37.446 290.921v1.563c0 3.156 2.555 5.726 5.711 5.726h247.518c2.51 0 4.629-1.623 5.396-3.877-.706-1.984-2.6-3.412-4.824-3.412z" fill="#decee5"/></g><path d="m44.328 159.374h167.848c3.799 0 6.88 3.08 6.88 6.88v124.674h-181.607v-124.674c0-3.8 3.08-6.88 6.879-6.88z" fill="#dd5e26"/><g fill="#ea792e"><path d="m81.414 174.679h121.632c2.465 0 4.462-1.998 4.462-4.462 0-2.465-1.998-4.462-4.462-4.462h-121.632c-2.465 0-4.462 1.998-4.462 4.462-.001 2.464 1.997 4.462 4.462 4.462z"/><path d="m53.001 174.679h13.899c2.465 0 4.462-1.998 4.462-4.462 0-2.465-1.998-4.462-4.462-4.462h-13.899c-2.465 0-4.462 1.998-4.462 4.462-.001 2.464 1.997 4.462 4.462 4.462z"/></g></g><g><path d="m219.055 264.423h41.968v26.504h-41.968z" fill="#ea792e" transform="matrix(-1 0 0 -1 480.079 555.351)"/><path d="m291.643 290.928h-37.606c-1.889 0-3.747-.487-5.393-1.415l-24-13.527c-3.453-1.946-5.59-5.603-5.59-9.567v-51.493c0-2.99 2.424-5.414 5.414-5.414h49.037c2.336 0 4.408 1.498 5.141 3.715l8.823 26.696c.869 2.629 2.462 4.959 4.595 6.723 2.737 2.263 4.322 5.63 4.322 9.182v30.355c.002 2.62-2.123 4.745-4.743 4.745z" fill="#f9c744"/><path d="m219.055 214.926h39.678c2.071 0 3.917 1.307 4.605 3.261l7.085 20.126c1.005 2.855 1.519 5.86 1.519 8.887v33.356c0 1.782-1.445 3.227-3.227 3.227h-17.204c-1.178 0-2.335-.305-3.36-.885l-29.096-16.478z" fill="#f39e22"/><path d="m265.879 239.494-6.647-18.913c-.499-1.418-1.838-2.367-3.342-2.367h-25.774c-1.956 0-3.542 1.586-3.542 3.542v19.299c0 1.956 1.586 3.542 3.542 3.542h32.147c2.642-.001 4.492-2.611 3.616-5.103z" fill="#4fcae8"/><path d="m229.437 247.267h7.228c1.842 0 3.336 1.493 3.336 3.336 0 1.842-1.493 3.336-3.336 3.336h-7.228c-1.842 0-3.336-1.493-3.336-3.336 0-1.843 1.494-3.336 3.336-3.336z" fill="#3e4e60"/><path d="m295.543 251.469h-4.181c-5.38 0-10.096-3.596-11.521-8.783l-5.82-21.191c-.453-1.651.789-3.281 2.501-3.281h3.773l7.175 21.709c.869 2.629 2.462 4.959 4.595 6.723 1.573 1.3 2.749 2.97 3.478 4.823z" fill="#4fcae8"/><path d="m290.728 271.4h6.84c.864 0 1.564-.7 1.564-1.564v-10.826c0-.864-.7-1.564-1.564-1.564h-6.84c-3.853 0-6.977 3.124-6.977 6.977 0 3.853 3.124 6.977 6.977 6.977z" fill="#ea792e"/><g fill="#f9c744"><ellipse cx="262.716" cy="257.447" rx="3.643" ry="6.844"/><ellipse cx="262.716" cy="273.034" rx="1.96" ry="4.76"/></g></g><g><circle cx="92.685" cy="313.35" fill="#334353" r="27.878"/><path d="m120.565 313.344c0 14.052-10.4 25.67-23.912 27.593-13.526-1.909-23.927-13.526-23.927-27.593 0-14.052 10.4-25.669 23.927-27.593 13.512 1.924 23.912 13.556 23.912 27.593z" fill="#3e4e60"/><circle cx="92.685" cy="313.35" fill="#decee5" r="15.735"/><circle cx="92.685" cy="313.35" fill="#c2aacf" r="6.79"/><g fill="#334353"><circle cx="92.685" cy="313.35" r="2.369"/><circle cx="81.301" cy="313.35" r="2.369"/><circle cx="92.685" cy="302.087" r="2.369"/><circle cx="92.685" cy="324.613" r="2.369"/><circle cx="104.068" cy="313.35" r="2.369"/></g></g><g><circle cx="242.756" cy="313.35" fill="#334353" r="27.878"/><path d="m270.637 313.344c0 14.052-10.4 25.67-23.912 27.593-13.526-1.909-23.927-13.526-23.927-27.593 0-14.052 10.4-25.669 23.927-27.593 13.512 1.924 23.912 13.556 23.912 27.593z" fill="#3e4e60"/><circle cx="242.756" cy="313.35" fill="#decee5" r="15.735"/><circle cx="242.756" cy="313.35" fill="#c2aacf" r="6.79"/><g fill="#334353"><circle cx="242.756" cy="313.35" r="2.369"/><circle cx="231.373" cy="313.35" r="2.369"/><circle cx="242.756" cy="302.087" r="2.369"/><circle cx="242.756" cy="324.613" r="2.369"/><circle cx="254.14" cy="313.35" r="2.369"/></g></g><g><g fill="#fff"><path d="m88.076 210.095c.59.608.885 1.414.885 2.42v30.814c0 .972-.278 1.736-.833 2.29-1.915 1.805-5.306.604-5.101-2.29v-21.445l-8.849 16.76c-.765 1.354-1.56 2.22-3.071 2.238-1.531-.026-2.311-.822-3.071-2.238l-8.901-16.5v21.185c.191 2.803-3.244 4.142-5.101 2.29-.521-.555-.781-1.318-.781-2.29v-30.814c-.14-3.783 4.859-4.588 6.35-1.093 0 0 11.556 22.017 11.556 22.017l11.504-22.018c1.07-2.41 3.742-2.932 5.413-1.326z"/><path d="m103.978 244.318c-10.971-6.108-11.052-26.957-.026-33.053 5.03-3.049 13.588-3.06 18.609 0 5.772 3.402 8.151 9.6 8.146 16.5.013 6.897-2.432 13.158-8.198 16.552-5.019 3.065-13.53 3.047-18.531.001zm17.177-6.558c1.891-2.324 2.837-5.656 2.837-9.994.026-7.622-3.103-13.352-10.723-13.429-7.669.073-10.795 5.776-10.775 13.429 0 4.338.945 7.669 2.837 9.994 3.431 4.639 12.379 4.668 15.824 0z"/><path d="m165.998 209.132c2.154-.066 4.206 2.079 3.071 4.216 0 0-14.418 31.022-14.418 31.022-1.246 2.75-5.73 2.756-6.975 0 0 0-14.366-31.022-14.366-31.022-.208-.486-.312-.902-.312-1.249-.001-3.132 5.087-4.139 6.298-1.197 0 0 11.972 26.598 11.972 26.598l11.972-26.598c.554-1.18 1.474-1.77 2.758-1.77z"/><path d="m174.56 245.307c-.572-.555-.859-1.335-.859-2.342v-30.346c0-1.006.286-1.787.859-2.342s1.362-.833 2.368-.833h18.791c1.006 0 1.787.226 2.342.677 1.135.829 1.088 3.1 0 3.93-.555.468-1.336.703-2.342.703h-15.459v10.098h14.418c1.837 0 3.173.773 3.175 2.655-.008 1.837-1.369 2.606-3.175 2.603h-14.418v10.722h15.459c1.006 0 1.787.234 2.342.703 1.088.83 1.134 3.101 0 3.93-.555.451-1.336.677-2.342.677h-18.791c-1.006-.002-1.795-.279-2.368-.835z"/></g></g></g><g><g><g><path d="m473.086 312.675v4.317c0 2.019-1.634 3.653-3.653 3.653h-141.339c-2.019 0-3.653-1.634-3.653-3.653v-1.019c0-.394.067-.769.202-1.115.452-1.269 1.663-2.182 3.086-2.182h145.357z" fill="#c2aacf"/><path d="m473.086 312.675v1c0 2.019-1.634 3.663-3.653 3.663h-141.339c-1.606 0-2.961-1.038-3.451-2.48.452-1.269 1.663-2.182 3.086-2.182h145.357z" fill="#decee5"/></g><g><path d="m473.086 291.087v21.589h-145.357l9.999-60.576c1.758-10.636 10.957-18.441 21.739-18.441h45.805c7.613 0 14.687 3.93 18.707 10.392l19.169 30.818h13.72c8.956.001 16.218 7.262 16.218 16.218z" fill="#528f66"/><path d="m473.086 291.087v21.589h-136.525l10.004-60.576c1.758-10.636 10.953-18.441 21.739-18.441h36.969c7.613 0 14.687 3.93 18.707 10.392l19.169 30.818h13.72c8.955.001 16.217 7.262 16.217 16.218z" fill="#53b976"/><path d="m468.281 290.85h5.844c.738 0 1.336.598 1.336 1.336v9.248c0 .738-.598 1.336-1.336 1.336h-5.844c-3.292 0-5.96-2.668-5.96-5.96 0-3.291 2.669-5.96 5.96-5.96z" fill="#f9c744"/><path d="m334.814 302.771h-7.179c-.738 0-1.336-.806-1.336-1.8l2.114-12.463c0-.994.598-1.8 1.336-1.8h5.065c3.292 0 5.96 3.596 5.96 8.032 0 4.435-2.668 8.031-5.96 8.031z" fill="#f9c744"/><path d="m443.148 274.87h-56.745v-31.28h37.281c.098.15.197.308.295.462z" fill="#79c7fd"/><path d="m376.468 243.589v31.28h-42.499l3.759-22.769c.513-3.122 1.672-6 3.323-8.511z" fill="#79c7fd"/><path d="m386.403 274.87h3.896v37.805h-3.896z" fill="#528f66"/><path d="m473.086 308.779v3.896h-145.358l.643-3.896z" fill="#50755c"/><path d="m412.482 282.568h-9.472c-2.286 0-4.139 1.853-4.139 4.139 0 2.286 1.853 4.139 4.139 4.139h9.472c2.286 0 4.139-1.853 4.139-4.139.001-2.286-1.853-4.139-4.139-4.139z" fill="#50755c"/><g fill="#78c795"><path d="m407.446 239.637h-49.946c-.992 0-1.795-.804-1.795-1.795 0-.992.804-1.795 1.795-1.795h49.946c.992 0 1.795.804 1.795 1.795.001.991-.803 1.795-1.795 1.795z"/><ellipse cx="434.907" cy="283.261" rx="9.642" ry="4.832"/><ellipse cx="454.211" cy="283.261" rx="5.97" ry="2.375"/></g></g><g><g><circle cx="359.124" cy="322.879" fill="#334353" r="18.349"/><path d="m377.475 322.875c0 9.249-6.845 16.895-15.738 18.162-8.903-1.256-15.748-8.903-15.748-18.162 0-9.249 6.845-16.895 15.748-18.162 8.892 1.267 15.738 8.923 15.738 18.162z" fill="#3e4e60"/><circle cx="359.124" cy="322.879" fill="#decee5" r="10.357"/><circle cx="359.124" cy="322.879" fill="#c2aacf" r="4.469"/><g fill="#334353"><circle cx="359.124" cy="322.879" r="1.56"/><circle cx="351.631" cy="322.879" r="1.56"/><circle cx="359.124" cy="315.466" r="1.56"/><circle cx="359.124" cy="330.292" r="1.56"/><circle cx="366.616" cy="322.879" r="1.56"/></g></g><g><circle cx="438.401" cy="322.879" fill="#334353" r="18.349"/><path d="m456.752 322.875c0 9.249-6.845 16.895-15.738 18.162-8.903-1.256-15.748-8.903-15.748-18.162 0-9.249 6.845-16.895 15.748-18.162 8.893 1.267 15.738 8.923 15.738 18.162z" fill="#3e4e60"/><circle cx="438.401" cy="322.879" fill="#decee5" r="10.357"/><circle cx="438.401" cy="322.879" fill="#c2aacf" r="4.469"/><g fill="#334353"><circle cx="438.401" cy="322.879" r="1.56"/><circle cx="430.909" cy="322.879" r="1.56"/><circle cx="438.401" cy="315.466" r="1.56"/><circle cx="438.401" cy="330.292" r="1.56"/><circle cx="445.894" cy="322.879" r="1.56"/></g></g></g></g><g><g><path d="m407.239 202.34v30.463c0 .473-.383.856-.856.856h-48.664c-.473 0-.856-.383-.856-.856v-30.463c0-.473.383-.856.856-.856h48.664c.472 0 .856.383.856.856z" fill="#eea47d"/><path d="m407.239 202.34v27.891h-44.884c-1.141 0-2.065-.925-2.065-2.065v-26.683h46.093c.472.001.856.384.856.857z" fill="#f5b890"/><path d="m406.382 201.484h-11.752v32.175h11.752c.473 0 .856-.383.856-.856v-30.463c.001-.473-.383-.856-.856-.856z" fill="#d48d77"/><path d="m406.382 233.659h-11.752v-3.428h12.609v2.571c0 .474-.384.857-.857.857z" fill="#c17e62"/></g><g fill="#3e4e60"><path d="m382.983 214.579v4.503h2.349v-4.503h1.753l-2.927-5.071-2.928 5.071z"/><path d="m388.728 209.881v9.201h2.349v-9.201h1.754l-2.928-5.07-2.928 5.07z"/></g><path d="m371.929 201.484h6.068v13.095h-6.068z" fill="#bf5e39"/></g><g><g><path d="m400.249 178.856v22.009c0 .342-.277.619-.619.619h-35.16c-.342 0-.619-.277-.619-.619v-22.009c0-.342.277-.619.619-.619h35.16c.342 0 .619.277.619.619z" fill="#eea47d"/><path d="m400.249 178.856v20.152h-32.429c-.824 0-1.492-.668-1.492-1.492v-19.278h33.302c.342-.001.619.276.619.618z" fill="#f5b890"/><path d="m399.63 178.237h-8.491v23.247h8.491c.342 0 .619-.277.619-.619v-22.009c0-.342-.277-.619-.619-.619z" fill="#d48d77"/><path d="m399.63 201.484h-8.491v-2.477h9.11v1.858c0 .342-.277.619-.619.619z" fill="#c17e62"/></g><g fill="#3e4e60"><path d="m382.724 187.698v3.254h1.697v-3.254h1.267l-2.115-3.663-2.116 3.663z"/><path d="m386.875 184.304v6.648h1.697v-6.648h1.267l-2.115-3.663-2.116 3.663z"/></g><path d="m374.738 178.237h4.384v9.461h-4.384z" fill="#bf5e39"/></g><g fill="#3e4e60"><path d="m396.901 178.237h-5.762l7.923 65.352h5.762z"/><path d="m367.183 178.237h5.762l-7.923 65.352h-5.762z"/></g></g></g></svg>